<?xml version="1.0" encoding="utf-8"?>
<!-- Generator: Adobe Illustrator 23.0.5, SVG Export Plug-In . SVG Version: 6.00 Build 0)  -->
<svg version="1.1" id="Layer_1" xmlns="http://www.w3.org/2000/svg" xmlns:xlink="http://www.w3.org/1999/xlink" x="0px" y="0px"
	 viewBox="0 0 792 612" style="enable-background:new 0 0 792 612;" xml:space="preserve">
<style type="text/css">
	.st0{clip-path:url(#SVGID_2_);fill:#FFFFFF;stroke:#000000;stroke-width:5.6693;stroke-miterlimit:10;}
	.st1{fill:none;stroke:#000000;stroke-width:5.6693;stroke-miterlimit:10;}
</style>
<g>
	<path d="M95.94,334.12l6.26-7.18c14.17,13.06,27.23,19.14,46.19,19.14c19.32,0,32.57-10.86,32.57-25.58v-0.37
		c0-13.62-7.18-21.53-36.43-27.42c-30.91-6.26-43.43-16.74-43.43-36.25v-0.37c0-19.14,17.48-33.86,41.4-33.86
		c18.77,0,31.1,5.15,44.16,15.64l-6.07,7.54c-12.14-10.49-24.29-14.54-38.46-14.54c-18.95,0-31.47,10.86-31.47,24.29v0.37
		c0,13.62,6.99,21.9,37.54,28.15c29.81,6.07,42.32,16.74,42.32,35.51v0.37c0,20.79-17.85,35.14-42.69,35.14
		C127.22,354.73,111.39,347.92,95.94,334.12z"/>
	<path d="M219.96,299.34v-75.26h9.57v74.34c0,30.36,16.38,47.84,43.61,47.84c26.13,0,42.87-15.82,42.87-46.92v-75.26h9.57v74.15
		c0,36.99-21.53,56.67-52.81,56.67C241.86,354.91,219.96,335.41,219.96,299.34z"/>
	<path d="M361.83,224.08h9.57v119.97h75.63v8.83h-85.19V224.08z"/>
	<path d="M475.73,224.08h9.57v119.97h75.63v8.83h-85.19V224.08z"/>
	<path d="M638.58,223.16h9.2l59.99,129.72h-10.49l-16.38-36.07h-75.99l-16.38,36.07h-9.94L638.58,223.16z M676.85,308.17L643,233.65
		l-34.04,74.52H676.85z"/>
</g>
</svg>
